<svg width="24" height="20" viewBox="0 0 24 20" fill="none" xmlns="http://www.w3.org/2000/svg">
<g clip-path="url(#clip0_526_4)">
<path d="M8.53125 20.1562C10.7625 20.1562 12.5625 18.6562 12.5625 16.7969V13.4375H8.53125C6.3 13.4375 4.5 14.9375 4.5 16.7969C4.5 18.6562 6.3 20.1562 8.53125 20.1562Z" fill="#0ACF83"/>
<path d="M4.5 10.0781C4.5 8.21875 6.3 6.71875 8.53125 6.71875H12.5625V13.4375H8.53125C6.3 13.4375 4.5 11.9375 4.5 10.0781Z" fill="#A259FF"/>
<path d="M4.5 3.35938C4.5 1.5 6.3 0 8.53125 0H12.5625V6.71875H8.53125C6.3 6.71875 4.5 5.21875 4.5 3.35938Z" fill="#F24E1E"/>
<path d="M12.5625 0H16.5938C18.825 0 20.625 1.5 20.625 3.35938C20.625 5.21875 18.825 6.71875 16.5938 6.71875H12.5625V0Z" fill="#FF7262"/>
<path d="M20.625 10.0781C20.625 11.9375 18.825 13.4375 16.5938 13.4375C14.3625 13.4375 12.5625 11.9375 12.5625 10.0781C12.5625 8.21875 14.3625 6.71875 16.5938 6.71875C18.825 6.71875 20.625 8.21875 20.625 10.0781Z" fill="#1ABCFE"/>
</g>
<defs>
<clipPath id="clip0_526_4">
<rect width="24" height="20" fill="white"/>
</clipPath>
</defs>
</svg>
