<svg width="20" height="20" viewBox="0 0 20 20" fill="none" xmlns="http://www.w3.org/2000/svg">
<g clip-path="url(#clip0_526_10)">
<path d="M0 0H20V20H0V0Z" fill="#F7DF1E"/>
<path d="M5.25789 16.7132L6.78836 15.787C7.08367 16.3105 7.35227 16.7534 7.99656 16.7534C8.61414 16.7534 9.00359 16.5119 9.00359 15.5722V9.18172H10.883V15.5988C10.883 17.5454 9.74195 18.4315 8.07711 18.4315C6.57359 18.4315 5.70086 17.6528 5.25781 16.713M11.9039 16.5118L13.4342 15.6258C13.8371 16.2837 14.3607 16.767 15.287 16.767C16.0658 16.767 16.5623 16.3776 16.5623 15.8405C16.5623 15.1962 16.0522 14.9679 15.193 14.5921L14.7232 14.3905C13.3672 13.8134 12.4677 13.0884 12.4677 11.558C12.4677 10.1483 13.5417 9.07422 15.2199 9.07422C16.4148 9.07422 17.274 9.49047 17.8915 10.5779L16.428 11.5177C16.1058 10.9405 15.7569 10.7123 15.2198 10.7123C14.6694 10.7123 14.3203 11.0613 14.3203 11.5177C14.3203 12.0816 14.6694 12.3099 15.4748 12.659L15.9447 12.8603C17.5423 13.5451 18.4418 14.2431 18.4418 15.8138C18.4418 17.5055 17.1127 18.4317 15.3272 18.4317C13.582 18.4317 12.4542 17.5994 11.9038 16.5119" fill="black"/>
</g>
<defs>
<clipPath id="clip0_526_10">
<rect width="20" height="20" fill="white"/>
</clipPath>
</defs>
</svg>
