<svg width="24" height="24" viewBox="0 0 24 24" fill="none" xmlns="http://www.w3.org/2000/svg">
<path d="M19.705 2.14746V21.8535H0V2.14746H19.705ZM0.141 21.7125H19.564V2.28846H0.141V21.7125ZM2.702 11.2685C3.13 11.2685 3.462 11.3811 3.698 11.6065C3.934 11.8318 4.065 12.0878 4.091 12.3745H3.645C3.60381 12.1734 3.49728 11.9916 3.342 11.8575C3.192 11.7301 2.98033 11.6665 2.707 11.6665C2.37367 11.6665 2.10433 11.7838 1.899 12.0185C1.695 12.2511 1.593 12.6091 1.593 13.0925C1.593 13.4885 1.685 13.8098 1.869 14.0565C2.055 14.3018 2.331 14.4245 2.697 14.4245C3.035 14.4245 3.292 14.2948 3.468 14.0355C3.56133 13.8995 3.63133 13.7201 3.678 13.4975H4.124C4.084 13.8535 3.952 14.1518 3.728 14.3925C3.46 14.6818 3.098 14.8265 2.642 14.8265C2.25 14.8265 1.92033 14.7078 1.653 14.4705C1.30233 14.1558 1.12667 13.6705 1.126 13.0145C1.126 12.5158 1.258 12.1071 1.522 11.7885C1.80733 11.4418 2.20067 11.2685 2.702 11.2685ZM4.982 13.6485C4.98331 13.8136 5.03002 13.9751 5.117 14.1155C5.269 14.3395 5.53667 14.4515 5.92 14.4515C6.09133 14.4515 6.248 14.4271 6.39 14.3785C6.66267 14.2831 6.799 14.1128 6.799 13.8675C6.799 13.6835 6.74133 13.5525 6.626 13.4745C6.50933 13.3971 6.327 13.3305 6.079 13.2745L5.621 13.1705C5.32233 13.1031 5.11067 13.0288 4.986 12.9475C4.77133 12.8068 4.664 12.5958 4.664 12.3145C4.664 12.0111 4.769 11.7621 4.979 11.5675C5.189 11.3728 5.48667 11.2755 5.872 11.2755C6.226 11.2755 6.52667 11.3611 6.774 11.5325C7.022 11.7025 7.146 11.9758 7.146 12.3525H6.716C6.70464 12.2029 6.65393 12.0591 6.569 11.9355C6.429 11.7588 6.19233 11.6705 5.859 11.6705C5.58833 11.6705 5.394 11.7271 5.276 11.8405C5.22024 11.8903 5.17564 11.9513 5.14513 12.0195C5.11463 12.0878 5.09891 12.1617 5.099 12.2365C5.099 12.4025 5.168 12.5238 5.306 12.6005C5.396 12.6491 5.60067 12.7105 5.92 12.7845L6.394 12.8925C6.62267 12.9445 6.79933 13.0158 6.924 13.1065C7.138 13.2645 7.245 13.4935 7.245 13.7935C7.245 14.1681 7.10833 14.4358 6.835 14.5965C6.5477 14.7629 6.21995 14.8467 5.888 14.8385C5.468 14.8385 5.139 14.7311 4.901 14.5165C4.66367 14.3031 4.547 14.0141 4.551 13.6495H4.981L4.982 13.6485ZM8.119 13.6485C8.12061 13.8137 8.16766 13.9752 8.255 14.1155C8.407 14.3395 8.67467 14.4515 9.058 14.4515C9.22933 14.4515 9.38567 14.4271 9.527 14.3785C9.80033 14.2831 9.937 14.1128 9.937 13.8675C9.937 13.6835 9.87933 13.5525 9.764 13.4745C9.64667 13.3971 9.464 13.3305 9.216 13.2745L8.759 13.1705C8.459 13.1031 8.24733 13.0288 8.124 12.9475C7.90933 12.8068 7.802 12.5958 7.802 12.3145C7.802 12.0111 7.907 11.7621 8.117 11.5675C8.32767 11.3728 8.625 11.2755 9.009 11.2755C9.36367 11.2755 9.66433 11.3611 9.911 11.5325C10.1597 11.7025 10.284 11.9758 10.284 12.3525H9.854C9.84235 12.2028 9.79128 12.059 9.706 11.9355C9.566 11.7588 9.32933 11.6705 8.996 11.6705C8.726 11.6705 8.532 11.7271 8.414 11.8405C8.35824 11.8903 8.31364 11.9513 8.28313 12.0195C8.25263 12.0878 8.23691 12.1617 8.237 12.2365C8.237 12.4025 8.306 12.5238 8.444 12.6005C8.534 12.6491 8.73867 12.7105 9.058 12.7845L9.532 12.8925C9.76 12.9445 9.93633 13.0158 10.061 13.1065C10.2757 13.2645 10.383 13.4935 10.383 13.7935C10.383 14.1681 10.2463 14.4358 9.973 14.5965C9.6857 14.7629 9.35795 14.8467 9.026 14.8385C8.606 14.8385 8.277 14.7311 8.039 14.5165C7.801 14.3031 7.68433 14.0141 7.689 13.6495H8.119V13.6485ZM1.922 17.2485L2.892 20.1055L3.857 17.2485H4.505V20.6285H4.071V18.6335C4.071 18.5641 4.07233 18.4498 4.075 18.2905C4.07833 18.1305 4.08 17.9595 4.08 17.7775L3.116 20.6275H2.663L1.693 17.7775V17.8815C1.69233 17.9648 1.69367 18.0915 1.697 18.2615C1.701 18.4295 1.70333 18.5535 1.704 18.6335V20.6275H1.267V17.2485H1.922ZM6.665 17.1575C7.26167 17.1575 7.70333 17.3491 7.99 17.7325C8.214 18.0311 8.326 18.4135 8.326 18.8795C8.326 19.3841 8.198 19.8038 7.942 20.1385C7.64133 20.5305 7.21267 20.7268 6.656 20.7275C6.136 20.7275 5.72733 20.5555 5.43 20.2115C5.16467 19.8808 5.032 19.4621 5.032 18.9555C5.032 18.4988 5.14533 18.1078 5.372 17.7825C5.664 17.3658 6.095 17.1575 6.665 17.1575ZM6.711 20.3175C7.11433 20.3175 7.40567 20.1735 7.585 19.8855C7.76633 19.5955 7.857 19.2625 7.857 18.8865C7.857 18.4891 7.75267 18.1695 7.544 17.9275C7.33733 17.6855 7.05367 17.5645 6.693 17.5645C6.343 17.5645 6.05767 17.6845 5.837 17.9245C5.61633 18.1645 5.506 18.5181 5.506 18.9855C5.506 19.3601 5.60033 19.6761 5.789 19.9335C5.979 20.1895 6.28633 20.3175 6.711 20.3175ZM10.166 20.2375C10.3213 20.2375 10.4487 20.2211 10.548 20.1885C10.7287 20.1265 10.8828 20.0048 10.985 19.8435C11.0849 19.6838 11.1516 19.5055 11.181 19.3195C11.2029 19.2024 11.2143 19.0836 11.215 18.9645C11.215 18.5465 11.1317 18.2215 10.965 17.9895C10.7983 17.7581 10.5307 17.6425 10.162 17.6425H9.35V20.2375H10.166ZM8.89 17.2475H10.258C10.7227 17.2475 11.083 17.4125 11.339 17.7425C11.5677 18.0398 11.682 18.4208 11.682 18.8855C11.682 19.2448 11.6147 19.5691 11.48 19.8585C11.242 20.3705 10.8333 20.6268 10.254 20.6275H8.89V17.2475ZM12.77 17.2475V19.3365C12.77 19.5818 12.816 19.7858 12.908 19.9485C13.0447 20.1938 13.2747 20.3165 13.598 20.3165C13.986 20.3165 14.2497 20.1838 14.389 19.9185C14.465 19.7745 14.5027 19.5805 14.502 19.3365V17.2475H14.967V19.1455C14.967 19.5601 14.911 19.8801 14.799 20.1055C14.593 20.5121 14.205 20.7155 13.635 20.7155C12.78 20.7155 12.677 20.5125 12.473 20.1055C12.361 19.8801 12.305 19.5601 12.305 19.1455V17.2475H12.77ZM16.127 17.2475V20.2245H17.838V20.6265H15.668V17.2475H16.127ZM18.335 17.2475H20.798V17.6615H18.781V18.6875H20.646V19.0785H18.781V20.2245H20.833V20.6265H18.335V17.2475ZM21.737 19.5375C21.7477 19.7281 21.7927 19.8835 21.872 20.0035C22.024 20.2275 22.2917 20.3395 22.675 20.3395C22.847 20.3395 23.0037 20.3148 23.145 20.2655C23.417 20.1701 23.5533 20.0001 23.554 19.7555C23.554 19.5715 23.4963 19.4401 23.381 19.3615C23.265 19.2855 23.0827 19.2188 22.834 19.1615L22.376 19.0585C22.0773 18.9905 21.8657 18.9161 21.741 18.8355C21.5263 18.6948 21.419 18.4838 21.419 18.2025C21.419 17.8985 21.524 17.6491 21.734 17.4545C21.944 17.2605 22.2417 17.1631 22.627 17.1625C22.981 17.1625 23.2813 17.2485 23.528 17.4205C23.7767 17.5905 23.901 17.8635 23.901 18.2395H23.471C23.4595 18.0903 23.4088 17.9468 23.324 17.8235C23.184 17.6468 22.947 17.5585 22.613 17.5585C22.343 17.5585 22.149 17.6151 22.031 17.7285C21.9752 17.7783 21.9306 17.8393 21.9001 17.9075C21.8696 17.9758 21.8539 18.0497 21.854 18.1245C21.854 18.2898 21.923 18.4108 22.061 18.4875C22.151 18.5368 22.3557 18.5981 22.675 18.6715L23.149 18.7795C23.3777 18.8328 23.554 18.9041 23.678 18.9935C23.8927 19.1521 24 19.3815 24 19.6815C24 20.0555 23.8633 20.3231 23.59 20.4845C23.3026 20.6506 22.9748 20.734 22.643 20.7255C22.223 20.7255 21.894 20.6181 21.656 20.4035C21.4187 20.1901 21.302 19.9011 21.306 19.5365H21.736L21.737 19.5375Z" fill="black"/>
</svg>
