<svg width="24" height="24" viewBox="0 0 24 24" fill="none" xmlns="http://www.w3.org/2000/svg">
<path d="M19.705 2.14697V21.853H0V2.14697H19.705ZM0.141 21.712H19.564V2.28797H0.141V21.712ZM2.702 11.268C3.13 11.268 3.462 11.3806 3.698 11.606C3.934 11.8313 4.065 12.0873 4.091 12.374H3.645C3.60381 12.1729 3.49728 11.9912 3.342 11.857C3.192 11.7296 2.98033 11.666 2.707 11.666C2.37367 11.666 2.10433 11.7833 1.899 12.018C1.695 12.2506 1.593 12.6086 1.593 13.092C1.593 13.488 1.685 13.8093 1.869 14.056C2.055 14.3013 2.331 14.424 2.697 14.424C3.035 14.424 3.292 14.2943 3.468 14.035C3.56133 13.899 3.63133 13.7196 3.678 13.497H4.124C4.084 13.853 3.952 14.1513 3.728 14.392C3.46 14.6813 3.098 14.826 2.642 14.826C2.25 14.826 1.92033 14.7073 1.653 14.47C1.30233 14.1553 1.12667 13.67 1.126 13.014C1.126 12.5153 1.258 12.1066 1.522 11.788C1.80733 11.4413 2.20067 11.268 2.702 11.268ZM4.982 13.648C4.98331 13.8131 5.03002 13.9746 5.117 14.115C5.269 14.339 5.53667 14.451 5.92 14.451C6.09133 14.451 6.248 14.4266 6.39 14.378C6.66267 14.2826 6.799 14.1123 6.799 13.867C6.799 13.683 6.74133 13.552 6.626 13.474C6.50933 13.3966 6.327 13.33 6.079 13.274L5.621 13.17C5.32233 13.1026 5.11067 13.0283 4.986 12.947C4.77133 12.8063 4.664 12.5953 4.664 12.314C4.664 12.0106 4.769 11.7616 4.979 11.567C5.189 11.3723 5.48667 11.275 5.872 11.275C6.226 11.275 6.52667 11.3606 6.774 11.532C7.022 11.702 7.146 11.9753 7.146 12.352H6.716C6.70464 12.2024 6.65393 12.0586 6.569 11.935C6.429 11.7583 6.19233 11.67 5.859 11.67C5.58833 11.67 5.394 11.7266 5.276 11.84C5.22024 11.8898 5.17564 11.9508 5.14513 12.019C5.11463 12.0873 5.09891 12.1612 5.099 12.236C5.099 12.402 5.168 12.5233 5.306 12.6C5.396 12.6486 5.60067 12.71 5.92 12.784L6.394 12.892C6.62267 12.944 6.79933 13.0153 6.924 13.106C7.138 13.264 7.245 13.493 7.245 13.793C7.245 14.1676 7.10833 14.4353 6.835 14.596C6.5477 14.7624 6.21995 14.8462 5.888 14.838C5.468 14.838 5.139 14.7306 4.901 14.516C4.66367 14.3026 4.547 14.0136 4.551 13.649H4.981L4.982 13.648ZM8.119 13.648C8.12061 13.8132 8.16766 13.9747 8.255 14.115C8.407 14.339 8.67467 14.451 9.058 14.451C9.22933 14.451 9.38567 14.4266 9.527 14.378C9.80033 14.2826 9.937 14.1123 9.937 13.867C9.937 13.683 9.87933 13.552 9.764 13.474C9.64667 13.3966 9.464 13.33 9.216 13.274L8.759 13.17C8.459 13.1026 8.24733 13.0283 8.124 12.947C7.90933 12.8063 7.802 12.5953 7.802 12.314C7.802 12.0106 7.907 11.7616 8.117 11.567C8.32767 11.3723 8.625 11.275 9.009 11.275C9.36367 11.275 9.66433 11.3606 9.911 11.532C10.1597 11.702 10.284 11.9753 10.284 12.352H9.854C9.84235 12.2023 9.79128 12.0585 9.706 11.935C9.566 11.7583 9.32933 11.67 8.996 11.67C8.726 11.67 8.532 11.7266 8.414 11.84C8.35824 11.8898 8.31364 11.9508 8.28313 12.019C8.25263 12.0873 8.23691 12.1612 8.237 12.236C8.237 12.402 8.306 12.5233 8.444 12.6C8.534 12.6486 8.73867 12.71 9.058 12.784L9.532 12.892C9.76 12.944 9.93633 13.0153 10.061 13.106C10.2757 13.264 10.383 13.493 10.383 13.793C10.383 14.1676 10.2463 14.4353 9.973 14.596C9.6857 14.7624 9.35795 14.8462 9.026 14.838C8.606 14.838 8.277 14.7306 8.039 14.516C7.801 14.3026 7.68433 14.0136 7.689 13.649H8.119V13.648ZM1.922 17.248L2.892 20.105L3.857 17.248H4.505V20.628H4.071V18.633C4.071 18.5636 4.07233 18.4493 4.075 18.29C4.07833 18.13 4.08 17.959 4.08 17.777L3.116 20.627H2.663L1.693 17.777V17.881C1.69233 17.9643 1.69367 18.091 1.697 18.261C1.701 18.429 1.70333 18.553 1.704 18.633V20.627H1.267V17.248H1.922ZM6.665 17.157C7.26167 17.157 7.70333 17.3486 7.99 17.732C8.214 18.0306 8.326 18.413 8.326 18.879C8.326 19.3836 8.198 19.8033 7.942 20.138C7.64133 20.53 7.21267 20.7263 6.656 20.727C6.136 20.727 5.72733 20.555 5.43 20.211C5.16467 19.8803 5.032 19.4616 5.032 18.955C5.032 18.4983 5.14533 18.1073 5.372 17.782C5.664 17.3653 6.095 17.157 6.665 17.157ZM6.711 20.317C7.11433 20.317 7.40567 20.173 7.585 19.885C7.76633 19.595 7.857 19.262 7.857 18.886C7.857 18.4886 7.75267 18.169 7.544 17.927C7.33733 17.685 7.05367 17.564 6.693 17.564C6.343 17.564 6.05767 17.684 5.837 17.924C5.61633 18.164 5.506 18.5176 5.506 18.985C5.506 19.3596 5.60033 19.6756 5.789 19.933C5.979 20.189 6.28633 20.317 6.711 20.317ZM10.166 20.237C10.3213 20.237 10.4487 20.2206 10.548 20.188C10.7287 20.126 10.8828 20.0043 10.985 19.843C11.0849 19.6833 11.1516 19.505 11.181 19.319C11.2029 19.2019 11.2143 19.0831 11.215 18.964C11.215 18.546 11.1317 18.221 10.965 17.989C10.7983 17.7576 10.5307 17.642 10.162 17.642H9.35V20.237H10.166ZM8.89 17.247H10.258C10.7227 17.247 11.083 17.412 11.339 17.742C11.5677 18.0393 11.682 18.4203 11.682 18.885C11.682 19.2443 11.6147 19.5686 11.48 19.858C11.242 20.37 10.8333 20.6263 10.254 20.627H8.89V17.247ZM12.77 17.247V19.336C12.77 19.5813 12.816 19.7853 12.908 19.948C13.0447 20.1933 13.2747 20.316 13.598 20.316C13.986 20.316 14.2497 20.1833 14.389 19.918C14.465 19.774 14.5027 19.58 14.502 19.336V17.247H14.967V19.145C14.967 19.5596 14.911 19.8796 14.799 20.105C14.593 20.5116 14.205 20.715 13.635 20.715C12.78 20.715 12.677 20.512 12.473 20.105C12.361 19.8796 12.305 19.5596 12.305 19.145V17.247H12.77ZM16.127 17.247V20.224H17.838V20.626H15.668V17.247H16.127ZM18.335 17.247H20.798V17.661H18.781V18.687H20.646V19.078H18.781V20.224H20.833V20.626H18.335V17.247ZM21.737 19.537C21.7477 19.7276 21.7927 19.883 21.872 20.003C22.024 20.227 22.2917 20.339 22.675 20.339C22.847 20.339 23.0037 20.3143 23.145 20.265C23.417 20.1696 23.5533 19.9996 23.554 19.755C23.554 19.571 23.4963 19.4396 23.381 19.361C23.265 19.285 23.0827 19.2183 22.834 19.161L22.376 19.058C22.0773 18.99 21.8657 18.9156 21.741 18.835C21.5263 18.6943 21.419 18.4833 21.419 18.202C21.419 17.898 21.524 17.6486 21.734 17.454C21.944 17.26 22.2417 17.1626 22.627 17.162C22.981 17.162 23.2813 17.248 23.528 17.42C23.7767 17.59 23.901 17.863 23.901 18.239H23.471C23.4595 18.0898 23.4088 17.9463 23.324 17.823C23.184 17.6463 22.947 17.558 22.613 17.558C22.343 17.558 22.149 17.6146 22.031 17.728C21.9752 17.7778 21.9306 17.8388 21.9001 17.907C21.8696 17.9753 21.8539 18.0492 21.854 18.124C21.854 18.2893 21.923 18.4103 22.061 18.487C22.151 18.5363 22.3557 18.5976 22.675 18.671L23.149 18.779C23.3777 18.8323 23.554 18.9036 23.678 18.993C23.8927 19.1516 24 19.381 24 19.681C24 20.055 23.8633 20.3226 23.59 20.484C23.3026 20.6501 22.9748 20.7335 22.643 20.725C22.223 20.725 21.894 20.6176 21.656 20.403C21.4187 20.1896 21.302 19.9006 21.306 19.536H21.736L21.737 19.537Z" fill="white"/>
</svg>
