<svg width="24" height="28" viewBox="0 0 24 28" fill="none" xmlns="http://www.w3.org/2000/svg">
<path d="M15.0981 9.66611C14.7544 9.5364 14.5769 9.58015 14.2165 9.5329C13.6592 9.46005 13.4372 9.19865 13.3431 8.52599C13.2904 8.1504 13.3525 7.60068 13.2181 7.2603C12.9608 6.61127 12.3586 6.32011 11.7537 6.48636C11.2429 6.6268 10.8181 7.2393 10.7944 7.86821C10.7676 8.58593 11.1085 9.19865 11.6937 9.40996C11.9717 9.51058 12.2672 9.56133 12.5577 9.58693C13.0902 9.63352 13.1312 9.98877 13.2752 10.2812C13.366 10.4656 13.4541 10.6472 13.4541 11.1969C13.4541 11.7466 13.3654 11.9284 13.2752 12.1128C13.1312 12.4044 12.9535 12.5956 12.4208 12.6429C12.1306 12.6687 11.8345 12.7194 11.557 12.8201C10.9716 13.032 10.6307 13.6439 10.6577 14.3618C10.6812 14.9905 11.1062 15.603 11.617 15.7434C12.2219 15.9103 12.8239 15.6187 13.0814 14.9695C13.2164 14.6291 13.2904 14.2435 13.3431 13.8681C13.4378 13.1954 13.6598 12.934 14.2165 12.861C14.5771 12.8137 14.95 12.861 15.2879 12.6308C15.6447 12.3178 15.9636 11.8479 15.9636 11.1969C15.9636 10.5459 15.6199 9.86343 15.0981 9.66611Z" fill="#F44250"/>
<path d="M9.38062 12.7221C8.67806 12.7221 8.10525 12.0331 8.10525 11.1887C8.10525 10.3441 8.67806 9.65527 9.38062 9.65527C10.0832 9.65527 10.656 10.3441 10.656 11.1887C10.656 12.0326 10.0824 12.7221 9.38062 12.7221ZM7.03087 15.8385C6.32962 15.8365 5.75831 15.145 5.76 14.2996C5.76169 13.4558 6.33694 12.769 7.03987 12.7716C7.74169 12.7738 8.313 13.4652 8.31075 14.3105C8.30906 15.1538 7.73381 15.8406 7.03087 15.8385ZM16.5079 15.8385C15.8044 15.8433 15.2269 15.159 15.2229 14.3166C15.219 13.4707 15.7881 12.7764 16.4886 12.7716C17.1922 12.767 17.7697 13.451 17.7737 14.2936C17.7774 15.1387 17.2086 15.8336 16.5079 15.8385ZM2.42962 21.2212C2.34037 21.109 2.32762 20.9725 2.28937 20.5138C2.25937 20.1575 2.09775 19.977 1.82119 19.9136C2.14894 19.8648 2.39137 19.5719 2.39137 19.123C2.39137 18.5227 2.04675 18.1469 1.35319 18.1469H0V21.2212H0.710625V20.2014H1.19137C1.434 20.2014 1.566 20.2795 1.58719 20.6308C1.60856 20.948 1.6425 21.1383 1.69781 21.2215L2.42962 21.2212ZM0.710625 19.5622V18.8106H1.2255C1.53187 18.8106 1.68506 18.9423 1.68506 19.1912C1.68506 19.4743 1.53187 19.5622 1.2255 19.5622H0.710625ZM4.00781 20.4453C3.94406 20.6162 3.82481 20.6895 3.6375 20.6895C3.429 20.6895 3.25875 20.5626 3.24187 20.2942H4.57369V20.0746C4.57369 19.4839 4.2375 18.9863 3.60356 18.9863C3.012 18.9863 2.5695 19.4791 2.5695 20.1673C2.5695 20.8601 3.00356 21.2799 3.612 21.2799C4.11412 21.2799 4.46325 21.0016 4.56094 20.504L4.00781 20.4453ZM3.25031 19.9136C3.27581 19.7086 3.37369 19.5524 3.59494 19.5524C3.79931 19.5524 3.90994 19.7182 3.91837 19.9133L3.25031 19.9136ZM5.95106 20.3136C5.95106 20.5967 5.79356 20.7625 5.59781 20.7625C5.48306 20.7625 5.40656 20.6895 5.40656 20.5772C5.40656 20.4357 5.50425 20.3771 5.67019 20.3381L5.95106 20.2795V20.3136ZM6.62775 19.8403C6.62775 19.2352 6.25744 18.9863 5.75531 18.9863C5.18531 18.9863 4.87444 19.3181 4.815 19.7963L5.45325 19.8453C5.48306 19.6841 5.55956 19.5719 5.71275 19.5719C5.87869 19.5719 5.95106 19.6793 5.95106 19.8597V19.8941L5.41912 19.9965C5.00662 20.0796 4.74262 20.2601 4.74262 20.6796C4.74262 21.0506 4.98525 21.2702 5.35537 21.2702C5.65744 21.2702 5.87456 21.1383 5.98519 20.8846C6.04894 21.1335 6.23194 21.27 6.46594 21.27C6.66169 21.27 6.79781 21.2066 6.89569 21.1287V20.7087C6.8471 20.732 6.79501 20.7436 6.7425 20.7431C6.67012 20.7431 6.62775 20.6943 6.62775 20.5821V19.8403ZM6.97425 20.1332C6.97425 20.826 7.41262 21.2799 8.01262 21.2799C8.58262 21.2799 8.90194 20.8601 8.94881 20.3331L8.38275 20.2843C8.33587 20.5527 8.22112 20.6846 8.02106 20.6846C7.81256 20.6846 7.66781 20.5234 7.66781 20.1332C7.66781 19.7429 7.81256 19.5817 8.02106 19.5817C8.22112 19.5817 8.33606 19.7086 8.38294 19.977L8.94881 19.933C8.90194 19.4109 8.58281 18.9863 8.01262 18.9863C7.41262 18.9863 6.97425 19.445 6.97425 20.1332ZM9.2805 20.6162C9.2805 21.1287 9.58237 21.2799 9.90169 21.2799C10.1612 21.2799 10.3273 21.2066 10.4719 21.0847V20.5722C10.3569 20.626 10.2634 20.6455 10.1782 20.6455C10.0378 20.6455 9.96131 20.5722 9.96131 20.3869V19.5911H10.4548V19.0447H9.96131V18.4444H9.52725L9.4635 18.7275C9.41662 18.9276 9.357 19.0447 9.16537 19.0788L9.02512 19.1033V19.5911H9.28031V20.616L9.2805 20.6162ZM13.9487 21.2212C13.8594 21.109 13.8465 20.9725 13.8082 20.5138C13.7784 20.1575 13.6168 19.977 13.3402 19.9136C13.6678 19.8648 13.9102 19.5719 13.9102 19.123C13.9102 18.5227 13.5658 18.1469 12.8721 18.1469H11.5191V21.2212H12.2297V20.2014H12.7104C12.9531 20.2014 13.0849 20.2795 13.1061 20.6308C13.1274 20.948 13.1616 21.1383 13.2167 21.2215L13.9487 21.2212ZM12.2297 19.5622V18.8106H12.7446C13.0509 18.8106 13.2039 18.9423 13.2039 19.1912C13.2039 19.4743 13.0509 19.5622 12.7446 19.5622H12.2297ZM14.7821 20.1332C14.7821 19.8061 14.8843 19.5817 15.1267 19.5817C15.3651 19.5817 15.4714 19.8061 15.4714 20.133C15.4714 20.4598 15.3651 20.6844 15.1267 20.6844C14.8843 20.6844 14.7821 20.46 14.7821 20.1332ZM16.1651 20.1332C16.1651 19.4596 15.7438 18.9863 15.1267 18.9863C14.5056 18.9863 14.0886 19.4596 14.0886 20.1332C14.0886 20.8113 14.5056 21.2799 15.1267 21.2799C15.7436 21.2799 16.1651 20.8113 16.1651 20.1332ZM17.6895 20.1135C17.6895 20.4453 17.6046 20.6601 17.3876 20.6601C17.1789 20.6601 17.1064 20.4991 17.1064 20.2062V19.0449H16.4175V20.4162C16.4175 20.8699 16.575 21.2799 17.094 21.2799C17.379 21.2799 17.5875 21.1383 17.6897 20.8944V21.2212H18.3789V19.0449H17.6897L17.6895 20.1135ZM18.8214 20.6162C18.8214 21.1287 19.1235 21.2799 19.4426 21.2799C19.7021 21.2799 19.8682 21.2066 20.0128 21.0847V20.5722C19.8979 20.626 19.8043 20.6455 19.7192 20.6455C19.5789 20.6455 19.5021 20.5722 19.5021 20.3869V19.5911H19.9957V19.0447H19.5021V18.4444H19.0682L19.0044 18.7275C18.9576 18.9276 18.8979 19.0447 18.7063 19.0788L18.5661 19.1033V19.5911H18.8214V20.6162ZM21.6144 20.4456C21.5507 20.6162 21.4316 20.6895 21.2443 20.6895C21.0358 20.6895 20.8657 20.5626 20.8485 20.2942H22.1805V20.0746C22.1805 19.4839 21.8443 18.9863 21.2102 18.9863C20.6188 18.9863 20.1761 19.4791 20.1761 20.1673C20.1761 20.8601 20.6102 21.2799 21.2188 21.2799C21.7209 21.2799 22.0699 21.0016 22.1677 20.504L21.6144 20.4456ZM20.8571 19.9136C20.8826 19.7086 20.9805 19.5524 21.2017 19.5524C21.4061 19.5524 21.5167 19.7182 21.525 19.9133L20.8571 19.9136ZM23.9321 19.0692C23.8852 19.0254 23.7832 18.9863 23.6683 18.9863C23.4172 18.9863 23.2174 19.1864 23.1491 19.4303V19.0449H22.4599V21.2215H23.1491V20.2259C23.1491 19.8597 23.3066 19.7232 23.5618 19.7232C23.6938 19.7232 23.796 19.7526 23.8897 19.816L23.9321 19.0692Z" fill="black"/>
</svg>
