<svg width="22" height="20" viewBox="0 0 22 20" fill="none" xmlns="http://www.w3.org/2000/svg">
<path d="M18.0884 6.47577C17.8543 6.39378 17.6181 6.31782 17.3803 6.24797C17.4202 6.0813 17.457 5.91665 17.4897 5.7549C18.0257 3.09867 17.6753 0.958757 16.4783 0.254195C15.3306 -0.421243 13.4536 0.283055 11.558 1.967C11.3712 2.13326 11.1885 2.30431 11.0101 2.47998C10.8907 2.36317 10.7692 2.24861 10.6457 2.13639C8.65898 0.335862 6.66763 -0.422998 5.4719 0.283581C4.32523 0.961125 3.9857 2.97279 4.46832 5.49016C4.51634 5.73948 4.57055 5.98751 4.63091 6.23402C4.34904 6.31577 4.07705 6.40279 3.81674 6.49542C1.48749 7.32437 0 8.6234 0 9.97086C0 11.3625 1.59689 12.7584 4.02291 13.6048C4.21959 13.6731 4.41791 13.7365 4.61768 13.7947C4.5528 14.0602 4.4952 14.3275 4.44495 14.5963C3.98484 17.07 4.34414 19.0341 5.48771 19.7074C6.66884 20.4026 8.65124 19.6881 10.5815 17.9657C10.738 17.8257 10.8911 17.6817 11.0406 17.5338C11.2337 17.7241 11.432 17.9088 11.6352 18.0877C13.5051 19.73 15.3517 20.3931 16.4942 19.7181C17.6742 19.0208 18.0577 16.9108 17.5598 14.3437C17.5206 14.1426 17.4766 13.9424 17.4279 13.7435C17.5671 13.7014 17.7037 13.6581 17.8369 13.613C20.359 12.7601 22 11.3811 22 9.97086C22 8.61849 20.4645 7.31069 18.0884 6.47577ZM17.5414 12.7024C17.4211 12.7431 17.2977 12.7823 17.1719 12.8204C16.8934 11.9207 16.5177 10.964 16.0579 9.97551C16.4966 9.0106 16.8579 8.06612 17.1285 7.17226C17.3536 7.23876 17.572 7.30884 17.7825 7.38279C19.8184 8.09823 21.0602 9.15586 21.0602 9.97086C21.0602 10.8389 19.719 11.9659 17.5414 12.7024ZM16.6378 14.53C16.858 15.6651 16.8894 16.6914 16.7435 17.4938C16.6126 18.2147 16.3491 18.6953 16.0232 18.8879C15.33 19.2975 13.8473 18.7651 12.2482 17.3605C12.0592 17.1941 11.8747 17.0224 11.6951 16.8456C12.315 16.1536 12.9345 15.3491 13.5392 14.4556C14.6028 14.3593 15.6075 14.2017 16.5187 13.9867C16.5626 14.1668 16.6023 14.348 16.6378 14.53ZM7.50028 18.8171C6.82292 19.0612 6.28341 19.0682 5.95727 18.8763C5.26333 18.4678 4.97484 16.8907 5.36834 14.7752C5.41512 14.5253 5.46868 14.2767 5.52896 14.0297C6.4301 14.2332 7.42758 14.3795 8.49363 14.4678C9.10241 15.3421 9.73981 16.1457 10.3822 16.8494C10.2457 16.9842 10.1059 17.1156 9.96308 17.2434C9.10946 18.005 8.25413 18.5453 7.50028 18.8171ZM4.32695 12.6971C3.2542 12.3228 2.36827 11.8364 1.76103 11.3056C1.21533 10.8287 0.939898 10.3551 0.939898 9.97086C0.939898 9.15314 2.13417 8.11016 4.12612 7.4013C4.36786 7.31533 4.62086 7.23419 4.8834 7.15805C5.15874 8.07209 5.51985 9.02779 5.95564 9.99419C5.51418 10.9749 5.14791 11.9459 4.86991 12.8707C4.68756 12.8174 4.50652 12.7595 4.32695 12.6971ZM5.39069 5.30586C4.97724 3.14911 5.25181 1.52218 5.94284 1.11384C6.6788 0.678932 8.30629 1.29902 10.0217 2.85376C10.1335 2.95537 10.2436 3.05904 10.3518 3.16472C9.71257 3.86534 9.08102 4.66297 8.47765 5.53209C7.44296 5.62998 6.45253 5.78718 5.54194 5.99779C5.48583 5.76851 5.4354 5.53774 5.39069 5.30586ZM14.8805 7.69788C14.6654 7.31866 14.4424 6.94422 14.2115 6.57481C14.9134 6.66542 15.586 6.78569 16.2175 6.9327C16.0279 7.55305 15.7916 8.20156 15.5134 8.86648C15.3101 8.47268 15.0991 8.08307 14.8805 7.69788ZM11.0106 3.85042C11.444 4.32981 11.8782 4.86498 12.3052 5.44569C11.439 5.40393 10.5713 5.40375 9.70501 5.44516C10.1325 4.86981 10.5703 4.33534 11.0106 3.85042ZM7.1158 7.70437C6.89995 8.08646 6.69287 8.47364 6.49473 8.8656C6.2211 8.20305 5.98692 7.55156 5.79571 6.92244C6.4234 6.77911 7.09277 6.66191 7.79023 6.57297C7.55678 6.94463 7.3319 7.32193 7.1158 7.70437ZM7.81026 13.437C7.08967 13.3549 6.41025 13.2438 5.78273 13.1043C5.97695 12.4639 6.21629 11.7986 6.49584 11.1218C6.69477 11.5141 6.90272 11.9015 7.11949 12.2838C7.34241 12.6767 7.57324 13.0617 7.81026 13.437ZM11.0365 16.1589C10.591 15.6684 10.1467 15.1257 9.71283 14.542C10.1341 14.5588 10.5635 14.5674 11 14.5674C11.4484 14.5674 11.8917 14.5572 12.328 14.5374C11.8996 15.1316 11.4671 15.6751 11.0365 16.1589ZM15.5223 11.0873C15.8164 11.7715 16.0642 12.4333 16.261 13.0627C15.6232 13.2113 14.9345 13.3309 14.2088 13.4198C14.4413 13.0435 14.6665 12.6626 14.8842 12.2772C15.1055 11.8854 15.3183 11.4887 15.5223 11.0873ZM14.0701 11.7979C13.7369 12.3888 13.3849 12.9685 13.0147 13.536C12.3442 13.5845 11.6722 13.6086 11 13.6082C10.3153 13.6082 9.64941 13.5865 9.00814 13.544C8.62832 12.9778 8.26962 12.3971 7.9328 11.8031C7.59758 11.2124 7.28454 10.6088 6.9942 9.99376C7.2838 9.37857 7.59598 8.77472 7.93005 8.18349L7.92997 8.18358C8.26392 7.5922 8.61976 7.01397 8.99671 6.45016C9.65095 6.39963 10.3219 6.37332 10.9999 6.37332C11.6811 6.37332 12.3529 6.3999 13.007 6.45077C13.3801 7.01374 13.7337 7.58998 14.067 8.17841C14.4022 8.76833 14.7185 9.36924 15.0154 9.98016C14.7216 10.5973 14.4063 11.2036 14.0701 11.7979ZM16.0089 1.08525C16.7455 1.51893 17.032 3.26779 16.5692 5.56121C16.5396 5.70753 16.5064 5.85656 16.4704 6.0077C15.5575 5.79262 14.5664 5.6327 13.5287 5.53332C12.9242 4.65463 12.2978 3.85577 11.669 3.16419C11.8338 3.00205 12.0025 2.8441 12.175 2.69051C13.7992 1.24779 15.3172 0.678143 16.0089 1.08525ZM11 7.9656C12.085 7.9656 12.9645 8.8634 12.9645 9.97086C12.9645 11.0783 12.085 11.9761 11 11.9761C9.91504 11.9761 9.03547 11.0783 9.03547 9.97086C9.03547 8.8634 9.91504 7.9656 11 7.9656Z" fill="#00D8FF"/>
</svg>
