<svg width="20" height="20" viewBox="0 0 20 20" fill="none" xmlns="http://www.w3.org/2000/svg">
<g clip-path="url(#clip0_525_2)">
<path d="M14.2415 7.38495C14.1406 6.85964 13.8749 6.38013 13.4831 6.01601C13.0913 5.65189 12.5936 5.42209 12.0623 5.35995L11.8581 5.33495C11.524 5.29296 11.2167 5.13056 10.9938 4.8782C10.7709 4.62583 10.6477 4.30083 10.6473 3.96412V3.25078C11.0066 3.10158 11.3034 2.83298 11.4877 2.49032C11.6719 2.14766 11.7323 1.75192 11.6586 1.36991C11.5849 0.987905 11.3817 0.643018 11.0832 0.393467C10.7847 0.143917 10.4093 0.00498847 10.0203 0.000131785C9.63125 -0.0047249 9.25246 0.124788 8.94785 0.366809C8.64325 0.60883 8.43147 0.948537 8.34827 1.32859C8.26507 1.70864 8.31554 2.10576 8.49117 2.45291C8.6668 2.80006 8.95682 3.07599 9.31229 3.23412V3.96245C9.31257 4.62453 9.55441 5.26377 9.99243 5.76025C10.4305 6.25672 11.0346 6.57633 11.6915 6.65912L11.8956 6.68578C12.5323 6.76578 12.849 7.23578 12.934 7.64828C13.0173 8.06078 12.909 8.61745 12.3523 8.93995C12.0828 9.09561 11.7829 9.1914 11.4731 9.22078L8.40646 9.50912C7.90422 9.55632 7.41812 9.71153 6.98146 9.96412C6.51535 10.2276 6.14541 10.6328 5.92541 11.1209C5.70541 11.609 5.64681 12.1546 5.75812 12.6783C5.859 13.2036 6.12464 13.6831 6.51648 14.0472C6.90833 14.4113 7.406 14.6411 7.93729 14.7033L8.14146 14.73C8.4754 14.7719 8.78259 14.9342 9.00548 15.1864C9.22837 15.4386 9.35167 15.7634 9.35229 16.0999V16.7475C8.99288 16.8976 8.69628 17.1671 8.51258 17.5106C8.32887 17.854 8.26931 18.2503 8.34395 18.6326C8.41859 19.0149 8.62287 19.3597 8.92228 19.6088C9.22169 19.858 9.59789 19.9961 9.98737 20C10.3768 20.0039 10.7557 19.8733 11.0601 19.6302C11.3644 19.3871 11.5755 19.0464 11.6578 18.6657C11.74 18.285 11.6884 17.8876 11.5116 17.5405C11.3348 17.1935 11.0436 16.918 10.6873 16.7608V16.0999C10.687 15.4377 10.445 14.7984 10.0068 14.3019C9.56864 13.8054 8.96433 13.4859 8.30729 13.4033L8.10396 13.3766C7.46729 13.2966 7.14979 12.8266 7.06562 12.4141C6.98146 12.0016 7.09062 11.4449 7.64646 11.1224C7.91644 10.9666 8.21689 10.8708 8.52729 10.8416L11.594 10.5541C12.0962 10.5069 12.5823 10.3517 13.019 10.0991C13.4851 9.8355 13.8549 9.43008 14.0748 8.94181C14.2947 8.45353 14.353 7.90785 14.2415 7.38412V7.38495ZM12.0306 11.3083C11.9102 11.3294 11.789 11.3461 11.6673 11.3583L10.3815 11.4808L11.9898 13.2466C12.4759 13.7797 12.7452 14.4752 12.7448 15.1966H14.0831C14.0836 14.1421 13.6898 13.1255 12.979 12.3466L12.0306 11.3083ZM7.86146 8.71662C8.01178 8.68604 8.16368 8.66378 8.31646 8.64995L9.50562 8.53662L7.89062 6.76662C7.40482 6.23343 7.13584 5.53793 7.13646 4.81662H5.80229C5.80229 5.87245 6.19396 6.88578 6.90562 7.66662L7.86146 8.71662Z" fill="black"/>
</g>
<defs>
<clipPath id="clip0_525_2">
<rect width="20" height="20" fill="white"/>
</clipPath>
</defs>
</svg>
