<svg width="22" height="20" viewBox="0 0 22 20" fill="none" xmlns="http://www.w3.org/2000/svg">
<path d="M11 0C8.06667 0 6.23333 2.22222 5.5 6.66667C6.6 4.44444 7.88333 3.61111 9.35 4.16667C10.1868 4.48364 10.7849 5.40346 11.447 6.42167C12.5255 8.08031 13.7737 10 16.5 10C19.4333 10 21.2667 7.77778 22 3.33333C20.9 5.55556 19.6167 6.38889 18.15 5.83333C17.3132 5.51636 16.7151 4.59654 16.053 3.57833C14.9745 1.91969 13.7263 0 11 0ZM5.5 10C2.56667 10 0.733333 12.2222 0 16.6667C1.1 14.4444 2.38333 13.6111 3.85 14.1667C4.68681 14.4836 5.28493 15.4035 5.94697 16.4217C7.02546 18.0803 8.27367 20 11 20C13.9333 20 15.7667 17.7778 16.5 13.3333C15.4 15.5556 14.1167 16.3889 12.65 15.8333C11.8132 15.5164 11.2151 14.5965 10.553 13.5783C9.47454 11.9197 8.22633 10 5.5 10Z" fill="url(#paint0_linear_298_81)"/>
<defs>
<linearGradient id="paint0_linear_298_81" x1="-156.444" y1="985.6" x2="5581.98" y2="2299.23" gradientUnits="userSpaceOnUse">
<stop stop-color="#2298BD"/>
<stop offset="1" stop-color="#0ED7B5"/>
</linearGradient>
</defs>
</svg>
