<svg width="20" height="20" viewBox="0 0 20 20" fill="none" xmlns="http://www.w3.org/2000/svg">
<path d="M0 10V20H10H20V10V0H10H0V10Z" fill="#007ACC"/>
<path d="M4.41967 10.0664L4.41332 10.8854H5.71491H7.01649V14.5838V18.2822H7.93713H8.85776V14.5838V10.8854H10.1594H11.4609V10.0822C11.4609 9.63778 11.4514 9.26635 11.4387 9.25683C11.4292 9.24413 9.84506 9.23778 7.92443 9.24096L4.42919 9.25048L4.41967 10.0664Z" fill="black"/>
<path d="M16.1348 9.22715C16.6428 9.35413 17.0301 9.57953 17.3856 9.94778C17.5697 10.1446 17.8428 10.5033 17.865 10.5891C17.8713 10.6144 17.0015 11.1986 16.4745 11.5256C16.4555 11.5383 16.3793 11.4557 16.2935 11.3287C16.0364 10.9541 15.7666 10.7922 15.3539 10.7637C14.7475 10.7224 14.357 11.0398 14.3602 11.57C14.3602 11.7256 14.3824 11.8176 14.4459 11.9446C14.5793 12.2208 14.8269 12.3859 15.6047 12.7224C17.0364 13.3383 17.6491 13.7446 18.0301 14.3224C18.4555 14.9668 18.5507 15.9954 18.2618 16.7605C17.9443 17.5922 17.157 18.1573 16.0491 18.3446C15.7062 18.4049 14.8935 18.3954 14.5253 18.3287C13.7221 18.1859 12.9602 17.7891 12.4904 17.2684C12.3062 17.0652 11.9475 16.5351 11.9697 16.497C11.9793 16.4843 12.0618 16.4335 12.1539 16.3795C12.2428 16.3287 12.5793 16.1351 12.8967 15.951L13.4713 15.6176L13.592 15.7954C13.7602 16.0525 14.1285 16.4049 14.3507 16.5224C14.9888 16.8589 15.865 16.8113 16.2967 16.424C16.4808 16.2557 16.557 16.0811 16.557 15.824C16.557 15.5922 16.5285 15.4906 16.4078 15.316C16.2523 15.0938 15.9348 14.9065 15.0332 14.516C14.0015 14.0716 13.557 13.7954 13.1507 13.3573C12.9158 13.1033 12.6935 12.697 12.6015 12.3573C12.5253 12.0748 12.5062 11.3668 12.5666 11.0811C12.7793 10.0843 13.5316 9.38905 14.6174 9.1827C14.9697 9.11604 15.7888 9.14143 16.1348 9.22715Z" fill="black"/>
</svg>
