<svg width="22" height="22" viewBox="0 0 22 22" fill="none" xmlns="http://www.w3.org/2000/svg">
<g clip-path="url(#clip0_298_89)">
<path d="M19.5154 4.95024L11.4517 19.3694C11.2852 19.6672 10.8574 19.6689 10.6885 19.3727L2.46488 4.95153C2.2808 4.62875 2.55683 4.23773 2.92275 4.30313L10.995 5.74602C11.0465 5.7552 11.0993 5.75509 11.1508 5.74568L19.0542 4.30511C19.4189 4.23868 19.6962 4.62669 19.5154 4.95024Z" fill="url(#paint0_linear_298_89)"/>
<path d="M14.8396 2.41055L8.87223 3.57973C8.82454 3.58905 8.7813 3.61397 8.74933 3.65056C8.71736 3.68716 8.69847 3.73334 8.69563 3.78186L8.3285 9.98147C8.3265 10.0155 8.33244 10.0494 8.34586 10.0807C8.35928 10.112 8.37981 10.1398 8.40582 10.1617C8.43182 10.1837 8.46259 10.1993 8.49568 10.2074C8.52878 10.2154 8.56328 10.2156 8.59646 10.2079L10.2579 9.82455C10.4133 9.78871 10.5538 9.92561 10.5219 10.0819L10.0283 12.499C9.995 12.6617 10.1478 12.8007 10.3066 12.7525L11.3328 12.4407C11.4919 12.3924 11.6447 12.5319 11.6111 12.6948L10.8266 16.4914C10.7776 16.7289 11.0935 16.8584 11.2252 16.6548L11.3132 16.5188L16.1757 6.81476C16.2572 6.65234 16.1168 6.46706 15.9383 6.50143L14.2282 6.83152C14.0675 6.86246 13.9308 6.71284 13.9761 6.55566L15.0923 2.68624C15.1377 2.5288 15.0004 2.3791 14.8396 2.41055Z" fill="url(#paint1_linear_298_89)"/>
</g>
<defs>
<linearGradient id="paint0_linear_298_89" x1="2.26413" y1="3.78777" x2="12.3" y2="17.4173" gradientUnits="userSpaceOnUse">
<stop stop-color="#41D1FF"/>
<stop offset="1" stop-color="#BD34FE"/>
</linearGradient>
<linearGradient id="paint1_linear_298_89" x1="10.531" y1="2.72792" x2="12.3464" y2="15.1817" gradientUnits="userSpaceOnUse">
<stop stop-color="#FFEA83"/>
<stop offset="0.083" stop-color="#FFDD35"/>
<stop offset="1" stop-color="#FFA800"/>
</linearGradient>
<clipPath id="clip0_298_89">
<rect width="22" height="22" fill="white"/>
</clipPath>
</defs>
</svg>
