<svg width="61" height="22" viewBox="0 0 61 13" fill="none" xmlns="http://www.w3.org/2000/svg">
<path d="M0.84375 12V10.6094L5.03125 5.42188V5.35938H0.984375V3.51562H7.8125V5.03125L3.89062 10.0938V10.1562H7.95312V12H0.84375ZM15.125 8.39062V3.51562H17.4375V12H15.2188V10.4688H15.125C14.7344 11.4531 13.8281 12.1094 12.5469 12.1094C10.8438 12.1094 9.6875 10.9062 9.6875 8.92188V3.51562H12V8.51562C12 9.51562 12.5781 10.1562 13.4844 10.1562C14.3281 10.1562 15.125 9.54688 15.125 8.39062ZM24.0781 6.03125C23.9844 5.4375 23.4531 5.04688 22.6875 5.04688C21.9375 5.04688 21.3594 5.40625 21.375 5.92188C21.3594 6.29688 21.6719 6.59375 22.4688 6.76562L23.9844 7.07812C25.625 7.42188 26.4219 8.15625 26.4375 9.375C26.4219 11.0469 24.9219 12.1719 22.6719 12.1719C20.375 12.1719 19.0312 11.1406 18.8438 9.48438H21.1719C21.2812 10.1562 21.8281 10.5 22.6719 10.5C23.5156 10.5 24.0781 10.1562 24.0781 9.60938C24.0781 9.17188 23.7188 8.90625 22.9219 8.73438L21.5156 8.45312C19.9062 8.14062 19.0625 7.29688 19.0781 6.04688C19.0625 4.42188 20.4688 3.40625 22.6562 3.40625C24.7969 3.40625 26.125 4.42188 26.25 6.03125H24.0781ZM32.3281 3.51562V5.25H30.7344V9.39062C30.7344 10.0625 31.0625 10.2344 31.5312 10.25C31.7656 10.25 32.1719 10.2344 32.4531 10.2031V12.0312C32.2031 12.0781 31.7969 12.1094 31.2188 12.1094C29.5469 12.1094 28.4062 11.3594 28.4219 9.71875V5.25H27.25V3.51562H28.4219V1.48438H30.7344V3.51562H32.3281ZM33.375 9.625C33.375 7.73438 34.9062 7.10938 36.5312 7.01562C37.1406 6.97656 38.2812 6.92188 38.6406 6.90625V6.21875C38.625 5.51562 38.1406 5.09375 37.2812 5.09375C36.5 5.09375 36 5.45312 35.875 6.03125H33.6719C33.8125 4.5625 35.0938 3.40625 37.3438 3.40625C39.1875 3.40625 40.9375 4.23438 40.9375 6.28125V12H38.75V10.8281H38.6875C38.2656 11.6094 37.4688 12.1562 36.2031 12.1562C34.5781 12.1562 33.375 11.3125 33.375 9.625ZM35.5938 9.5625C35.5938 10.2188 36.125 10.5625 36.8594 10.5625C37.9062 10.5625 38.6562 9.85938 38.6406 8.96875V8.34375C38.2891 8.35938 37.3047 8.41406 36.9062 8.45312C36.1094 8.53125 35.5938 8.90625 35.5938 9.5625ZM45.0156 7.09375V12H42.7031V3.51562H44.9062V5H45C45.3906 4.01562 46.2969 3.40625 47.5469 3.40625C49.3125 3.40625 50.4844 4.60938 50.4688 6.59375V12H48.1719V7C48.1719 5.95312 47.5938 5.32812 46.6406 5.32812C45.6719 5.32812 45.0156 5.96875 45.0156 7.09375ZM55.3906 12.1406C53.4531 12.1406 51.9375 10.5938 51.9375 7.76562C51.9375 4.85938 53.5156 3.40625 55.3906 3.40625C56.8125 3.40625 57.4844 4.25 57.7969 4.9375H57.875V0.6875H60.1875V12H57.9062V10.6406H57.7969C57.4688 11.3438 56.7656 12.1406 55.3906 12.1406ZM56.1094 10.2969C57.2656 10.2969 57.9219 9.28125 57.9219 7.75C57.9219 6.21875 57.2656 5.25 56.1094 5.25C54.9375 5.25 54.3125 6.26562 54.3125 7.75C54.3125 9.25 54.9375 10.2969 56.1094 10.2969Z" fill="#2451CF"/>
</svg>
