<svg width="157" height="36" viewBox="0 0 157 36" fill="none" xmlns="http://www.w3.org/2000/svg">
<rect width="125.056" height="36" rx="18" fill="black"/>
<rect x="119.625" width="37.3808" height="36" rx="18" fill="black"/>
<path d="M137.99 13.8992L141.503 17.2131L133.264 17.3016L133.279 18.698L141.518 18.6094L138.077 21.9632L139.173 22.8766L144.299 17.8813L139.067 12.9624L137.99 13.8992Z" fill="white"/>
<path d="M25.6836 15.5986C25.6709 17.6172 26.8389 19.6738 28.54 20.499L27.791 21.4639C26.5532 20.8228 25.5947 19.5469 25.0996 18.0234C24.5854 19.6484 23.5889 21.0068 22.2939 21.6797L21.5449 20.7021C23.2969 19.8643 24.4775 17.6807 24.4775 15.5986V13.6562H25.6836V15.5986ZM30.5967 12.7041V17.2363H32.4248V18.2646H30.5967V24.0791H29.3906V12.7041H30.5967ZM42.3906 12.7041V24.1045H41.1846V12.7041H42.3906ZM36.3096 13.5547C37.998 13.5547 39.2422 15.1035 39.2422 17.541C39.2422 19.9912 37.998 21.54 36.3096 21.54C34.5957 21.54 33.3643 19.9912 33.3643 17.541C33.3643 15.1035 34.5957 13.5547 36.3096 13.5547ZM36.3096 14.6338C35.2559 14.6338 34.5322 15.751 34.5322 17.541C34.5322 19.3438 35.2559 20.4609 36.3096 20.4609C37.3506 20.4609 38.0742 19.3438 38.0742 17.541C38.0742 15.751 37.3506 14.6338 36.3096 14.6338ZM53.4355 18.7598V19.7246H45.5137V13.6436H53.3213V14.6211H46.7324V16.1572H53.0801V17.1094H46.7324V18.7598H53.4355ZM54.6162 21.6543V22.6445H44.2061V21.6543H54.6162ZM67.4766 12.7041V17.1094H69.3047V18.125H67.4766V24.0791H66.2705V12.7041H67.4766ZM60.2402 13.6562V16.5762H63.249V13.6562H64.4424V21.375H59.0469V13.6562H60.2402ZM60.2402 20.3848H63.249V17.5283H60.2402V20.3848ZM80.2607 21.7051V22.7207H69.8506V21.7051H74.4336V19.7119H71.1201V16.0938H77.7979V14.4941H71.0947V13.5039H78.9912V17.0586H72.3135V18.7217H79.2578V19.7119H75.627V21.7051H80.2607ZM89.9473 12.7041V17.2363H91.7119V18.2393H89.9473V24.0664H88.7412V12.7041H89.9473ZM86.9766 13.8975C86.9639 17.1855 85.5166 20.1182 81.7715 21.9717L81.0986 21.0322C83.9487 19.6104 85.4976 17.5537 85.7451 14.9004H81.6699V13.8975H86.9766ZM101.779 12.7041V24.0791H100.561V12.7041H101.779ZM98.3896 13.9229C98.3896 17.249 96.9678 20.1436 93.0703 22.0098L92.4355 21.0322C95.4634 19.5913 96.936 17.541 97.1709 14.8877H92.9814V13.9229H98.3896Z" fill="white"/>
</svg>
