<svg width="39" height="38" viewBox="0 0 39 38" fill="none" xmlns="http://www.w3.org/2000/svg">
<g filter="url(#filter0_d_298_127)">
<path d="M19.5 0C10.9362 0 4 6.88677 4 15.3808C4 22.1779 8.44075 27.9419 14.5981 29.9734C15.3731 30.1183 15.6573 29.6427 15.6573 29.2339C15.6573 28.8686 15.6444 27.9009 15.6379 26.6191C11.3263 27.5471 10.417 24.5555 10.417 24.5555C9.71175 22.7803 8.69263 22.3061 8.69263 22.3061C7.28858 21.3525 8.80113 21.3717 8.80113 21.3717C10.3576 21.4794 11.1752 22.9559 11.1752 22.9559C12.5573 25.3079 14.8035 24.6286 15.6896 24.2351C15.8291 23.2405 16.2282 22.5624 16.6713 22.1779C13.229 21.7934 9.611 20.4706 9.611 14.5772C9.611 12.8981 10.2116 11.5267 11.2062 10.45C11.0318 10.0616 10.5087 8.49792 11.3418 6.37921C11.3418 6.37921 12.64 5.96649 15.6043 7.95574C16.8443 7.61352 18.1618 7.44433 19.4793 7.43664C20.7968 7.44433 22.1143 7.61352 23.3543 7.95574C26.2993 5.96649 27.5975 6.37921 27.5975 6.37921C28.4306 8.49792 27.9075 10.0616 27.7525 10.45C28.7406 11.5267 29.3412 12.8981 29.3412 14.5772C29.3412 20.486 25.7181 21.787 22.2693 22.1651C22.8118 22.6265 23.3156 23.5699 23.3156 25.0105C23.3156 27.069 23.2962 28.7225 23.2962 29.2223C23.2962 29.6261 23.5675 30.1067 24.3618 29.9529C30.5631 27.9355 35 22.1676 35 15.3808C35 6.88677 28.0599 0 19.5 0Z" fill="black"/>
</g>
<defs>
<filter id="filter0_d_298_127" x="0" y="0" width="39" height="38" filterUnits="userSpaceOnUse" color-interpolation-filters="sRGB">
<feFlood flood-opacity="0" result="BackgroundImageFix"/>
<feColorMatrix in="SourceAlpha" type="matrix" values="0 0 0 0 0 0 0 0 0 0 0 0 0 0 0 0 0 0 127 0" result="hardAlpha"/>
<feOffset dy="4"/>
<feGaussianBlur stdDeviation="2"/>
<feComposite in2="hardAlpha" operator="out"/>
<feColorMatrix type="matrix" values="0 0 0 0 0 0 0 0 0 0 0 0 0 0 0 0 0 0 0.25 0"/>
<feBlend mode="normal" in2="BackgroundImageFix" result="effect1_dropShadow_298_127"/>
<feBlend mode="normal" in="SourceGraphic" in2="effect1_dropShadow_298_127" result="shape"/>
</filter>
</defs>
</svg>
