<svg width="157" height="36" viewBox="0 0 157 36" fill="none" xmlns="http://www.w3.org/2000/svg">
<rect width="125.056" height="36" rx="18" fill="black"/>
<rect x="119.625" width="37.3808" height="36" rx="18" fill="black"/>
<path d="M137.99 13.8992L141.503 17.2131L133.264 17.3016L133.279 18.698L141.518 18.6094L138.077 21.9632L139.173 22.8766L144.299 17.8813L139.067 12.9624L137.99 13.8992Z" fill="white"/>
<path d="M31.1553 20.334H29.9492V12.7168H31.1553V20.334ZM27.7783 13.5801C27.7741 14.5618 27.5583 15.4548 27.1309 16.2588C26.7077 17.0586 26.0941 17.7505 25.29 18.3345C24.486 18.9185 23.5169 19.3776 22.3828 19.7119L21.9131 18.7471C23.2757 18.3535 24.3527 17.797 25.144 17.0776C25.9354 16.354 26.3882 15.514 26.5024 14.5576H22.5098V13.5801H27.7783ZM28.0449 19.9785C28.0407 20.4779 28.1994 20.9434 28.521 21.375C28.8426 21.8024 29.2869 22.1663 29.854 22.4668C30.4253 22.763 31.0706 22.9704 31.79 23.0889L31.3203 24.041C30.4232 23.8844 29.6297 23.5924 28.9399 23.165C28.2502 22.7419 27.7402 22.2192 27.4102 21.5972C27.0716 22.2192 26.5575 22.7419 25.8677 23.165C25.1779 23.5924 24.3844 23.8844 23.4873 24.041L23.0176 23.0889C23.7285 22.9746 24.3696 22.7694 24.9409 22.4731C25.5164 22.1727 25.9671 21.8066 26.293 21.375C26.623 20.9434 26.7881 20.4779 26.7881 19.9785V19.5342H28.0449V19.9785ZM39.7246 15.4717H32.9834V14.4814H35.7383V12.8564H36.9443V14.4814H39.7246V15.4717ZM36.3604 16.3096C36.8682 16.3096 37.3252 16.4238 37.7314 16.6523C38.1377 16.8766 38.4572 17.1898 38.6899 17.5918C38.9227 17.9938 39.0391 18.4466 39.0391 18.9502C39.0391 19.4538 38.9227 19.9066 38.6899 20.3086C38.4572 20.7106 38.1377 21.0259 37.7314 21.2544C37.3252 21.4829 36.8682 21.5993 36.3604 21.6035C35.8398 21.5993 35.3722 21.4829 34.9575 21.2544C34.547 21.0259 34.2254 20.7106 33.9927 20.3086C33.7599 19.9066 33.6436 19.4538 33.6436 18.9502C33.6436 18.4466 33.7599 17.9938 33.9927 17.5918C34.2254 17.1898 34.5492 16.8766 34.9639 16.6523C35.3786 16.4238 35.8441 16.3096 36.3604 16.3096ZM36.3604 17.3252C36.0557 17.3294 35.7827 17.4014 35.5415 17.541C35.3003 17.6764 35.1099 17.8669 34.9702 18.1123C34.8348 18.3577 34.7692 18.637 34.7734 18.9502C34.7692 19.2718 34.8348 19.5553 34.9702 19.8008C35.1099 20.0462 35.3003 20.2367 35.5415 20.3721C35.7827 20.5033 36.0557 20.5667 36.3604 20.5625C36.6608 20.5667 36.9295 20.5033 37.1665 20.3721C37.4077 20.2367 37.596 20.0462 37.7314 19.8008C37.8669 19.5553 37.9346 19.2718 37.9346 18.9502C37.9346 18.637 37.8669 18.3577 37.7314 18.1123C37.596 17.8669 37.4077 17.6764 37.1665 17.541C36.9253 17.4014 36.6566 17.3294 36.3604 17.3252ZM42.4541 24.0791H41.2607V18.3789H39.4834V17.3887H41.2607V12.7041H42.4541V24.0791ZM54.6162 22.6064H44.2061V21.6162H54.6162V22.6064ZM46.6055 15.5352H52.1914V13.4912H53.3848V19.458H45.3994V13.4912H46.6055V15.5352ZM52.1914 18.5059V16.4873H46.6055V18.5059H52.1914ZM67.4766 17.1094H69.3047V18.125H67.4766V24.0791H66.2705V12.7041H67.4766V17.1094ZM60.2402 16.5762H63.249V13.6562H64.4424V21.375H59.0469V13.6562H60.2402V16.5762ZM63.249 20.3848V17.5283H60.2402V20.3848H63.249ZM80.2607 22.7207H69.8506V21.7051H74.4336V19.7119H71.1201V16.0938H77.7979V14.4941H71.0947V13.5039H78.9912V17.0586H72.3135V18.7217H79.2578V19.7119H75.627V21.7051H80.2607V22.7207ZM89.9473 17.2363H91.7119V18.2393H89.9473V24.0664H88.7412V12.7041H89.9473V17.2363ZM86.9766 13.8975C86.9681 15.6325 86.547 17.1898 85.7134 18.5693C84.8797 19.9489 83.5658 21.083 81.7715 21.9717L81.0986 21.0322C82.5205 20.3213 83.6187 19.4538 84.3931 18.4297C85.1717 17.4056 85.6224 16.2292 85.7451 14.9004H81.6699V13.8975H86.9766ZM101.779 24.0791H100.561V12.7041H101.779V24.0791ZM98.3896 13.9229C98.3896 15.6833 97.9686 17.249 97.1265 18.6201C96.2886 19.987 94.9365 21.1169 93.0703 22.0098L92.4355 21.0322C93.9294 20.3213 95.0614 19.4559 95.8315 18.436C96.606 17.4162 97.0524 16.2334 97.1709 14.8877H92.9814V13.9229H98.3896Z" fill="white"/>
</svg>
