<svg width="35" height="35" viewBox="0 0 35 35" fill="none" xmlns="http://www.w3.org/2000/svg">
<path d="M0 17.5V35H35V0H0V17.5ZM28.2034 16.1044C29.0425 16.3019 29.805 16.7416 30.3964 17.3687C30.7158 17.71 31.1937 18.3367 31.2342 18.4909C31.2452 18.5369 29.7248 19.5562 28.8017 20.1261C28.7678 20.1491 28.6311 20.0069 28.4823 19.7837C28.0328 19.1286 27.5592 18.8442 26.8362 18.7928C25.7764 18.7239 25.0928 19.2773 25.0983 20.2059C25.0927 20.4332 25.1434 20.6582 25.2459 20.8611C25.48 21.3456 25.9186 21.6355 27.2738 22.2228C29.7806 23.2991 30.8514 24.0111 31.5175 25.0195C32.2634 26.1472 32.4286 27.9475 31.9277 29.2917C31.3698 30.7442 29.9906 31.7352 28.0536 32.06C27.4553 32.1683 26.0312 32.1508 25.387 32.0316C23.9805 31.7811 22.6472 31.0855 21.8269 30.1744C21.502 29.8211 20.8753 28.8925 20.9158 28.8302C20.9333 28.8072 21.0755 28.7164 21.2352 28.6245L22.5345 27.872L23.543 27.2858L23.7541 27.5986C24.0505 28.0481 24.6936 28.6639 25.0819 28.8684C26.1986 29.4612 27.7309 29.3759 28.4889 28.6978C28.7963 28.4419 28.968 28.0481 28.945 27.65C28.945 27.2453 28.8936 27.0637 28.6825 26.7608C28.4091 26.3736 27.8567 26.0433 26.2784 25.3597C24.4727 24.5788 23.6917 24.1008 22.9862 23.3319C22.5421 22.8258 22.2137 22.229 22.0238 21.583C21.8925 21.0875 21.8586 19.845 21.9614 19.3495C22.3322 17.6006 23.6534 16.3877 25.55 16.0289C26.1658 15.9097 27.6008 15.9545 28.2045 16.1033L28.2034 16.1044ZM19.9894 17.5689L20.0003 18.9984H15.4427V31.9473H12.2183V18.9984H7.66719V17.5973C7.66719 16.8164 7.68469 16.1678 7.70656 16.1503C7.72406 16.1273 10.4923 16.1164 13.8534 16.1219L19.9719 16.1394L19.9894 17.5689Z" fill="white"/>
</svg>
