<svg width="42" height="35" viewBox="0 0 42 35" fill="none" xmlns="http://www.w3.org/2000/svg">
<path d="M0.140625 0.0625H6.23438V14.4531H22.0312V0.0625H28.1719V34H22.0312V19.5625H6.23438V34H0.140625V0.0625ZM37.875 34.375C37.2188 34.375 36.6094 34.2109 36.0469 33.8828C35.4844 33.5547 35.0391 33.1094 34.7109 32.5469C34.3828 31.9844 34.2188 31.375 34.2188 30.7188C34.2188 30.0781 34.3828 29.4844 34.7109 28.9375C35.0391 28.375 35.4844 27.9297 36.0469 27.6016C36.6094 27.2734 37.2188 27.1094 37.875 27.1094C38.5 27.1094 39.0859 27.2734 39.6328 27.6016C40.1953 27.9297 40.6406 28.375 40.9688 28.9375C41.3125 29.4844 41.4844 30.0781 41.4844 30.7188C41.4844 31.375 41.3125 31.9844 40.9688 32.5469C40.6406 33.1094 40.1953 33.5547 39.6328 33.8828C39.0859 34.2109 38.5 34.375 37.875 34.375Z" fill="black"/>
</svg>
